<?xml version="1.0" encoding="UTF-8"?>
<svg width="38px" height="38px" viewBox="0 0 38 38" version="1.1" xmlns="http://www.w3.org/2000/svg" xmlns:xlink="http://www.w3.org/1999/xlink">
    <!-- Generator: Sketch 52.5 (67469) - http://www.bohemiancoding.com/sketch -->
    <title>behancehov</title>
    <desc>Created with Sketch.</desc>
    <g id="Page-1" stroke="none" stroke-width="1" fill="none" fill-rule="evenodd">
        <g id="Artboard-Copy-6" transform="translate(-417.000000, -590.000000)">
            <g id="behancehov" transform="translate(417.000000, 590.000000)">
                <path d="M19,0 C1.748,0 0,1.748 0,19 C0,36.252 1.748,38 19,38 C36.252,38 38,36.252 38,19 C38,1.748 36.252,0 19,0 Z" id="Path" fill="#2F3542"></path>
                <g id="behance" transform="translate(8.000000, 12.000000)" fill="#CAD1D9" fill-rule="nonzero">
                    <path d="M19.8642991,1.98079156 L14.3518724,1.98079156 L14.3518724,0.580417992 L19.8642991,0.580417992 L19.8642991,1.98079156 Z M10.6837856,7.72179673 C11.0530472,8.33710906 11.2382629,9.04942681 11.2166235,9.7710276 C11.229659,10.5611808 11.0186664,11.3382894 10.6091368,12.0084666 C10.3582261,12.4347264 10.0296665,12.8077964 9.64127668,13.1074439 C9.18556244,13.4590183 8.65728822,13.6994141 8.09681906,13.810263 C7.46130967,13.9406693 6.81441066,14.0041754 6.16624704,13.9997873 L0,13.9997873 L0,0 L6.6102786,0 C8.27571874,0.027638952 9.45722881,0.526456228 10.1548088,1.49118727 C10.5817908,2.11676213 10.8010553,2.86600996 10.7803142,3.62859955 C10.7803142,4.48409093 10.5705253,5.16848402 10.1483736,5.68835955 C9.85666573,6.02096956 9.50201206,6.28961422 9.10586471,6.47804389 C9.75352394,6.69961163 10.3093606,7.1377346 10.6837856,7.72179673 Z M3.15584173,5.51726127 L6.05298681,5.51726127 C6.647603,5.51726127 7.12981699,5.40187962 7.49962878,5.1711163 C7.86944058,4.94035299 8.05434648,4.53015585 8.05434648,3.94052487 C8.05434648,3.28245458 7.80980735,2.85734118 7.31944206,2.64939097 C6.7955073,2.49098973 6.25031779,2.41857967 5.7041968,2.43486006 L3.15584173,2.43486006 L3.15584173,5.51726127 Z M8.3336359,9.57097423 C8.3336359,8.84446464 8.04276305,8.34169894 7.46230439,8.07189012 C7.13968435,7.91921782 6.68364034,7.83893324 6.09417235,7.8310364 L3.15584173,7.8310364 L3.15584173,11.5609788 L6.04912567,11.5609788 C6.64245481,11.5609788 7.10321799,11.4806942 7.43398933,11.3148605 C8.03246666,11.0134643 8.3336359,10.4330463 8.3336359,9.57097423 Z M21.9081313,7.29405105 C21.9861253,7.95463302 22.0145235,8.62035389 21.9930765,9.28537173 L14.8551082,9.28537173 C14.8954357,10.2917806 15.2386485,10.9967932 15.8847466,11.4004096 C16.3113091,11.6628297 16.8029638,11.7935495 17.3004994,11.7768258 C17.8835322,11.7768258 18.3571658,11.6267858 18.7226875,11.3161766 C18.9418913,11.1260341 19.1209886,10.8922883 19.2490901,10.6291513 L21.8656587,10.6291513 C21.7970162,11.2240468 21.4804024,11.8277166 20.9158173,12.4401607 C20.0329024,13.4158596 18.8016264,13.9041477 17.2219895,13.9050251 C15.9644792,13.9210468 14.7415647,13.4840041 13.7675526,12.6704853 C12.7730935,11.8465813 12.2750059,10.5080663 12.2732899,8.6549404 C12.2732899,6.91500256 12.7228986,5.58262959 13.6221162,4.65782148 C14.5230498,3.73652308 15.6916894,3.26797704 17.129322,3.26797704 C17.9214922,3.25518322 18.7072578,3.41490163 19.434425,3.73652308 C20.1255969,4.05603838 20.7128852,4.57119847 21.1268932,5.22112965 C21.5383727,5.84219817 21.8055901,6.55122736 21.9081313,7.29405105 Z M19.3340353,7.55727916 C19.2851275,6.8610408 19.058607,6.33326843 18.6480387,5.97791047 C18.2251307,5.6107211 17.6838194,5.41744871 17.129322,5.43566056 C16.4703534,5.43566056 15.9619695,5.62913322 15.600309,6.01081399 C15.2386485,6.39249475 15.009554,6.90710572 14.9168865,7.56254372 L19.3340353,7.55727916 Z" id="Behance"></path>
                </g>
            </g>
        </g>
    </g>
</svg>