<?xml version="1.0" encoding="UTF-8"?>
<svg width="38px" height="38px" viewBox="0 0 38 38" version="1.1" xmlns="http://www.w3.org/2000/svg" xmlns:xlink="http://www.w3.org/1999/xlink">
    <!-- Generator: Sketch 52.5 (67469) - http://www.bohemiancoding.com/sketch -->
    <title>github</title>
    <desc>Created with Sketch.</desc>
    <g id="Page-1" stroke="none" stroke-width="1" fill="none" fill-rule="evenodd">
        <g id="Artboard-Copy-6" transform="translate(-503.000000, -534.000000)">
            <g id="github" transform="translate(503.000000, 534.000000)">
                <path d="M19,0 C1.748,0 0,1.748 0,19 C0,36.252 1.748,38 19,38 C36.252,38 38,36.252 38,19 C38,1.748 36.252,0 19,0 Z" id="Path-Copy-2" fill="#CAD1D9"></path>
                <g transform="translate(8.000000, 8.000000)" fill="#2F3542" id="Path">
                    <path d="M22,11.3004599 C21.9980749,16.0718154 19.0822289,20.3288197 14.7114807,21.9413711 C13.3448043,22.2297356 13.7607493,21.4607635 13.7607493,19.3006274 C13.7607493,17.1404912 12.8846099,16.3130669 12.8302462,16.266305 C12.9162166,16.2935828 14.7380304,16.8547246 16.5585799,14.8270802 C18.4246431,12.7487773 17.802622,9.24164103 17.1806009,8.11935744 C16.5585799,6.99707384 17.6471168,5.88258388 16.8695904,4.92396664 C16.0920641,3.9653494 13.9162546,5.87868706 13.9162546,5.87868706 C12.983223,5.55914798 10.9616545,5.55914798 10.9616545,5.55914798 C10.9616545,5.55914798 8.93882172,5.55914798 8.00831865,5.87868706 C8.00831865,5.87868706 5.83124489,3.96275152 5.05371855,4.92006982 C4.27619221,5.87738812 5.36472909,6.99837278 4.74397228,8.11546062 C4.25469961,8.99354362 3.76669121,11.3485207 4.4822683,13.3255063 C4.67895741,13.8794595 4.97964686,14.3883195 5.36725763,14.8231834 C7.18527857,16.8547246 9.0083566,16.2935828 9.09306272,16.2702019 C8.86154011,16.5084857 8.67959222,16.792648 8.55827631,17.1054199 C8.51276257,17.1989435 7.34078384,19.5617142 5.05498282,16.7443147 C5.05498282,16.7443147 4.12321548,15.1466193 2.87917333,15.7856975 C1.63513119,16.4247756 3.81220494,15.945467 4.58973129,18.1822406 C4.58973129,18.1822406 4.83499976,20.2033902 8.17140954,19.7526582 C8.21439474,21.4815465 8.4558704,22.1453045 7.38503331,21.9738445 C7.27883459,21.9374742 7.17263587,21.8972071 7.06896569,21.8556411 C1.87870184,19.8145243 -1.01421883,14.1162519 0.326626852,8.57505451 C1.66747253,3.03385717 6.82077686,-0.609163111 12.3370924,0.084508146 C17.8534078,0.778179403 21.9994506,5.59058345 22,11.3004599 Z"></path>
                </g>
            </g>
        </g>
    </g>
</svg>