<?xml version="1.0" encoding="UTF-8"?>
<svg width="38px" height="38px" viewBox="0 0 38 38" version="1.1" xmlns="http://www.w3.org/2000/svg" xmlns:xlink="http://www.w3.org/1999/xlink">
    <!-- Generator: Sketch 52.5 (67469) - http://www.bohemiancoding.com/sketch -->
    <title>instagramhov</title>
    <desc>Created with Sketch.</desc>
    <g id="Page-1" stroke="none" stroke-width="1" fill="none" fill-rule="evenodd">
        <g id="Artboard-Copy-6" transform="translate(-460.000000, -590.000000)">
            <g id="instagramhov" transform="translate(460.000000, 590.000000)">
                <path d="M19,0 C1.748,0 0,1.748 0,19 C0,36.252 1.748,38 19,38 C36.252,38 38,36.252 38,19 C38,1.748 36.252,0 19,0 Z" id="Path-Copy" fill="#2F3542"></path>
                <g id="instagram" transform="translate(8.000000, 8.000000)" fill="#CAD1D9">
                    <path d="M22,15.8903744 L22,6.13638125 C21.9273816,4.54098778 21.309982,3.01809207 20.2499556,1.81967066 C19.1713207,0.626304798 17.6227044,-0.0378473802 16.0108845,0.00166817521 L6.05309827,0.00166817521 L5.95904598,0.00166817521 C4.42966453,0.118029553 2.97966523,0.726130978 1.82746322,1.7343734 C0.627288006,2.81003932 -0.0398198314,4.35503457 0.00184108365,5.96244173 L0.00184108365,6.18990111 L0.00184108365,15.8903744 C0.0746877272,17.4792251 0.692380665,18.9951704 1.75188549,20.1853425 C2.79304641,21.3304523 4.26846126,21.9886455 5.81964705,22 C5.89522478,22 5.95400746,22 5.98759756,22 L6.04805975,22 L15.8345365,22 L15.9437043,22 L16.0343976,22 C17.5648636,21.8826873 19.0158063,21.2740977 20.1693393,20.2656223 C21.3696658,19.1921832 22.036959,17.6485926 21.9949615,16.0425714 L21.9949615,15.8903744 L22,15.8903744 Z M20.1407878,16.1261962 C20.1584716,17.1781845 19.7151583,18.1856727 18.9265055,18.8858136 C18.08271,19.6147943 17.028257,20.0581236 15.9151527,20.1518926 L5.95904598,20.1518926 L5.89018626,20.1518926 C4.83503262,20.16855 3.82433771,19.7293603 3.11900271,18.9476959 C2.3883119,18.1150904 1.94298417,17.072323 1.84761728,15.9706541 L1.86105332,15.9706541 L1.86105332,5.93568181 L1.86105332,5.865437 C1.84426644,4.81362825 2.28742332,3.80649551 3.07533557,3.10581961 C3.895524,2.39618735 4.91654164,1.95734603 5.99767459,1.84977558 L16.1116548,1.84977558 C17.167962,1.83261264 18.1794941,2.27399766 18.8828384,3.05898974 C19.6063006,3.89004959 20.0482436,4.92709001 20.1458263,6.02265157 L20.1458263,16.1261962 L20.1407878,16.1261962 Z" id="Shape" fill-rule="nonzero"></path>
                    <circle id="Oval" cx="16.5" cy="5.5" r="1.5"></circle>
                    <path d="M11,5.5 C7.96243388,5.5 5.5,7.96243388 5.5,11 C5.5,14.0375661 7.96243388,16.5 11,16.5 C14.0375661,16.5 16.5,14.0375661 16.5,11 C16.5,9.54130931 15.9205374,8.14236278 14.8890873,7.1109127 C13.8576372,6.07946262 12.4586907,5.5 11,5.5 Z M11,14.5869565 C9.54921151,14.5869565 8.241277,13.7130226 7.68608429,12.3726688 C7.13089157,11.032315 7.43777634,9.4895011 8.46363872,8.46363872 C9.4895011,7.43777634 11.032315,7.13089157 12.3726688,7.68608429 C13.7130226,8.241277 14.5869565,9.54921151 14.5869565,11 C14.5869565,12.9810214 12.9810214,14.5869565 11,14.5869565 Z" id="Shape" fill-rule="nonzero"></path>
                </g>
            </g>
        </g>
    </g>
</svg>